<svg xmlns="http://www.w3.org/2000/svg" xmlns:xlink="http://www.w3.org/1999/xlink" width="50" height="50" viewBox="0 0 50 50"><defs><style>.a{fill:#fff;}.b{fill:none;}.c,.d{fill:#01d167;}.c{stroke:rgba(0,0,0,0);stroke-miterlimit:10;}.e{filter:url(#a);}</style><filter id="a" x="0" y="0" width="50" height="50" filterUnits="userSpaceOnUse"><feOffset dy="2" input="SourceAlpha"/><feGaussianBlur stdDeviation="3" result="b"/><feFlood flood-color="#072a44" flood-opacity="0.122"/><feComposite operator="in" in2="b"/><feComposite in="SourceGraphic"/></filter></defs><g transform="translate(-2 -78)"><g class="e" transform="matrix(1, 0, 0, 1, 2, 78)"><circle class="a" cx="16" cy="16" r="16" transform="translate(9 7)"/></g><g transform="translate(16.588 90.588)"><path class="b" d="M0,0H20.537V20.537H0Z"/><path class="c" d="M9.413,12.839a10.04,10.04,0,0,1-5.756-1.8A10.136,10.136,0,0,1,0,6.418a10.112,10.112,0,0,1,18.824,0,10.139,10.139,0,0,1-3.656,4.619A10.042,10.042,0,0,1,9.413,12.839Zm0-10.7a4.278,4.278,0,1,0,4.279,4.276A4.283,4.283,0,0,0,9.413,2.142Z" transform="translate(0.856 3.849)"/><path class="d" d="M2.567,0A2.567,2.567,0,1,0,5.134,2.567,2.564,2.564,0,0,0,2.567,0Z" transform="translate(7.701 7.701)"/></g></g></svg>