<svg xmlns="http://www.w3.org/2000/svg" width="11.454" height="14.2" viewBox="0 0 11.454 14.2"><defs><style>.a{fill:#23cefd;stroke:#0c365a;stroke-linecap:round;stroke-linejoin:round;stroke-width:0.2px;}</style></defs><g transform="translate(0.1 0.1)"><path class="a" d="M8.314,4.534l1.23-1.212V8.849a.988.988,0,0,0,1.976,0V3.323l1.23,1.211a1,1,0,0,0,1.4,0,.963.963,0,0,0,0-1.376L11.231.285a1,1,0,0,0-1.4,0L6.916,3.158a.963.963,0,0,0,0,1.376A1,1,0,0,0,8.314,4.534Z" transform="translate(-4.905 0)"/><path class="a" d="M16.14,11.6a2.379,2.379,0,0,1-2.388,2.363H7.275A2.379,2.379,0,0,1,4.887,11.6a.983.983,0,0,1,1.967,0,.42.42,0,0,0,.421.417h6.477a.42.42,0,0,0,.421-.417.983.983,0,0,1,1.967,0Z" transform="translate(-4.887 0.035)"/></g></svg>