<svg xmlns="http://www.w3.org/2000/svg" xmlns:xlink="http://www.w3.org/1999/xlink" width="38" height="28" viewBox="0 0 38 28"><defs><style>.a{fill:#eee;}.b{fill:#fff;}.c{filter:url(#a);}</style><filter id="a" x="0" y="0" width="28" height="28" filterUnits="userSpaceOnUse"><feOffset input="SourceAlpha"/><feGaussianBlur stdDeviation="2" result="b"/><feFlood flood-opacity="0.078"/><feComposite operator="in" in2="b"/><feComposite in="SourceGraphic"/></filter></defs><g transform="translate(-315.287 -4.004)"><path class="a" d="M34,10a9.971,9.971,0,0,1-9.917,10H9.917a10,10,0,0,1,0-20H24.083A9.97,9.97,0,0,1,34,10ZM15.583,10a5.667,5.667,0,1,0-5.667,5.714A5.7,5.7,0,0,0,15.583,10Zm0,0" transform="translate(319.287 8.004)"/><g class="c" transform="matrix(1, 0, 0, 1, 315.29, 4)"><circle class="b" cx="8" cy="8" r="8" transform="translate(6 6)"/></g></g></svg>